<svg xmlns="http://www.w3.org/2000/svg" viewBox="0 10.350000381469727 251.32000732421875 89.4059829711914" data-asc="0.927734375" width="251.32000732421875" height="89.4059829711914"><defs/><g><g fill="#000000"><g transform="translate(0, 0)"><path d="M28.25 34.81Q27.71 40.50 24.05 43.69Q20.39 46.88 14.31 46.88Q10.06 46.88 6.82 44.86Q3.59 42.85 1.83 39.14Q0.07 35.42 0 30.52L0 27.20Q0 22.17 1.78 18.33Q3.56 14.50 6.90 12.43Q10.23 10.35 14.60 10.35Q20.48 10.35 24.07 13.55Q27.66 16.75 28.25 22.58L22.09 22.58Q21.66 18.75 19.86 17.05Q18.07 15.36 14.60 15.36Q10.57 15.36 8.41 18.30Q6.25 21.24 6.20 26.93L6.20 30.08Q6.20 35.84 8.26 38.87Q10.33 41.89 14.31 41.89Q17.94 41.89 19.78 40.26Q21.61 38.62 22.09 34.81L28.25 34.81ZM62.13 29.54Q62.13 34.77 60.33 38.71Q58.52 42.65 55.16 44.76Q51.81 46.88 47.44 46.88Q43.12 46.88 39.73 44.76Q36.35 42.65 34.51 38.75Q32.67 34.84 32.64 29.74L32.64 27.73Q32.64 22.53 34.48 18.55Q36.33 14.58 39.69 12.46Q43.04 10.35 47.39 10.35Q51.73 10.35 55.09 12.44Q58.45 14.53 60.28 18.44Q62.11 22.36 62.13 27.56L62.13 29.54M55.96 27.69Q55.96 21.78 53.72 18.63Q51.49 15.48 47.39 15.48Q43.38 15.48 41.13 18.62Q38.87 21.75 38.82 27.49L38.82 29.54Q38.82 35.40 41.10 38.60Q43.38 41.80 47.44 41.80Q51.54 41.80 53.75 38.67Q55.96 35.55 55.96 29.54L55.96 27.69ZM74.46 41.46L90.60 41.46L90.60 46.39L68.29 46.39L68.29 10.84L74.46 10.84L74.46 41.46ZM122.14 29.54Q122.14 34.77 120.34 38.71Q118.53 42.65 115.17 44.76Q111.82 46.88 107.45 46.88Q103.13 46.88 99.74 44.76Q96.36 42.65 94.52 38.75Q92.68 34.84 92.65 29.74L92.65 27.73Q92.65 22.53 94.49 18.55Q96.34 14.58 99.69 12.46Q103.05 10.35 107.40 10.35Q111.74 10.35 115.10 12.44Q118.46 14.53 120.29 18.44Q122.12 22.36 122.14 27.56L122.14 29.54M115.97 27.69Q115.97 21.78 113.73 18.63Q111.50 15.48 107.40 15.48Q103.39 15.48 101.14 18.62Q98.88 21.75 98.83 27.49L98.83 29.54Q98.83 35.40 101.11 38.60Q103.39 41.80 107.45 41.80Q111.55 41.80 113.76 38.67Q115.97 35.55 115.97 29.54L115.97 27.69ZM141.36 32.69L134.47 32.69L134.47 46.39L128.30 46.39L128.30 10.84L140.80 10.84Q146.95 10.84 150.29 13.60Q153.64 16.36 153.64 21.58Q153.64 25.15 151.92 27.55Q150.20 29.96 147.12 31.25L155.10 46.07L155.10 46.39L148.49 46.39L141.36 32.69M134.47 27.73L140.82 27.73Q143.95 27.73 145.70 26.16Q147.46 24.58 147.46 21.85Q147.46 18.99 145.84 17.43Q144.21 15.87 140.99 15.82L134.47 15.82L134.47 27.73ZM179.98 31.32L165.67 31.32L165.67 46.39L159.50 46.39L159.50 10.84L182.08 10.84L182.08 15.82L165.67 15.82L165.67 26.39L179.98 26.39L179.98 31.32ZM212.96 10.84L212.96 34.59Q212.96 40.26 209.34 43.57Q205.71 46.88 199.68 46.88Q193.58 46.88 189.99 43.62Q186.40 40.36 186.40 34.57L186.40 10.84L192.55 10.84L192.55 34.62Q192.55 38.18 194.36 40.06Q196.17 41.94 199.68 41.94Q206.81 41.94 206.81 34.42L206.81 10.84L212.96 10.84ZM225.73 41.46L241.87 41.46L241.87 46.39L219.56 46.39L219.56 10.84L225.73 10.84L225.73 41.46Z"/></g><g transform="translate(0, 52.8759765625)"><path d="M20.39 37.23Q20.39 34.89 18.74 33.62Q17.09 32.35 12.79 31.05Q8.50 29.76 5.96 28.17Q1.10 25.12 1.10 20.21Q1.10 15.92 4.60 13.13Q8.11 10.35 13.70 10.35Q17.41 10.35 20.31 11.72Q23.22 13.09 24.88 15.61Q26.54 18.14 26.54 21.22L20.39 21.22Q20.39 18.43 18.64 16.86Q16.89 15.28 13.65 15.28Q10.62 15.28 8.95 16.58Q7.28 17.87 7.28 20.19Q7.28 22.14 9.08 23.45Q10.89 24.76 15.04 25.99Q19.19 27.22 21.70 28.80Q24.22 30.37 25.39 32.41Q26.56 34.45 26.56 37.18Q26.56 41.63 23.16 44.25Q19.75 46.88 13.92 46.88Q10.06 46.88 6.82 45.45Q3.59 44.02 1.79 41.50Q0 38.99 0 35.64L6.18 35.64Q6.18 38.67 8.18 40.33Q10.18 41.99 13.92 41.99Q17.14 41.99 18.76 40.69Q20.39 39.38 20.39 37.23ZM57.67 15.82L46.58 15.82L46.58 46.39L40.45 46.39L40.45 15.82L29.47 15.82L29.47 10.84L57.67 10.84L57.67 15.82ZM79.30 38.11L65.53 38.11L62.65 46.39L56.23 46.39L69.65 10.84L75.20 10.84L88.65 46.39L82.20 46.39L79.30 38.11M67.26 33.13L77.56 33.13L72.41 18.38L67.26 33.13ZM120.87 46.39L114.70 46.39L98.85 21.17L98.85 46.39L92.68 46.39L92.68 10.84L98.85 10.84L114.75 36.16L114.75 10.84L120.87 10.84L120.87 46.39ZM128.17 46.39L128.17 10.84L138.67 10.84Q143.38 10.84 147.03 12.94Q150.68 15.04 152.69 18.90Q154.69 22.75 154.69 27.73L154.69 29.52Q154.69 34.57 152.67 38.40Q150.66 42.24 146.94 44.31Q143.21 46.39 138.40 46.39L128.17 46.39M134.35 15.82L134.35 41.46L138.38 41.46Q143.24 41.46 145.84 38.42Q148.44 35.38 148.49 29.69L148.49 27.71Q148.49 21.92 145.97 18.87Q143.46 15.82 138.67 15.82L134.35 15.82ZM180.22 38.11L166.46 38.11L163.57 46.39L157.15 46.39L170.58 10.84L176.12 10.84L189.58 46.39L183.13 46.39L180.22 38.11M168.19 33.13L178.49 33.13L173.34 18.38L168.19 33.13ZM206.67 32.69L199.78 32.69L199.78 46.39L193.60 46.39L193.60 10.84L206.10 10.84Q212.26 10.84 215.60 13.60Q218.95 16.36 218.95 21.58Q218.95 25.15 217.22 27.55Q215.50 29.96 212.43 31.25L220.41 46.07L220.41 46.39L213.79 46.39L206.67 32.69M199.78 27.73L206.13 27.73Q209.25 27.73 211.01 26.16Q212.77 24.58 212.77 21.85Q212.77 18.99 211.15 17.43Q209.52 15.87 206.30 15.82L199.78 15.82L199.78 27.73ZM224.80 46.39L224.80 10.84L235.30 10.84Q240.01 10.84 243.66 12.94Q247.31 15.04 249.32 18.90Q251.32 22.75 251.32 27.73L251.32 29.52Q251.32 34.57 249.30 38.40Q247.29 42.24 243.57 44.31Q239.84 46.39 235.03 46.39L224.80 46.39M230.98 15.82L230.98 41.46L235.01 41.46Q239.87 41.46 242.47 38.42Q245.07 35.38 245.12 29.69L245.12 27.71Q245.12 21.92 242.60 18.87Q240.09 15.82 235.30 15.82L230.98 15.82Z"/></g></g></g></svg>